#define gift1_width 48
#define gift1_height 48
static unsigned char gift1_bits[] = {
   0x00, 0x00, 0x00, 0x00, 0x00, 0x00, 0x00, 0x00, 0x00, 0x00, 0x00, 0x00,
   0x00, 0x00, 0x00, 0x00, 0x00, 0x00, 0x00, 0x00, 0x00, 0x00, 0x00, 0x00,
   0x00, 0x00, 0x00, 0x00, 0x00, 0x00, 0x00, 0x00, 0x00, 0x00, 0x00, 0x00,
   0x00, 0x00, 0x00, 0x00, 0x00, 0x00, 0x00, 0xf0, 0x0f, 0x7c, 0x00, 0x00,
   0x00, 0xf0, 0x1f, 0x7e, 0x00, 0x00, 0x00, 0xf0, 0x1f, 0x1e, 0x00, 0x00,
   0x00, 0x80, 0x1f, 0x8f, 0x7f, 0x00, 0xe0, 0xff, 0xff, 0xe7, 0xff, 0x03,
   0xf0, 0xff, 0xff, 0xff, 0xff, 0x03, 0xf0, 0xff, 0xff, 0xff, 0xff, 0x07,
   0xd0, 0xff, 0xff, 0xff, 0xff, 0x0f, 0x1c, 0x00, 0xe0, 0x60, 0x00, 0x0e,
   0x1c, 0x00, 0xe0, 0x00, 0x00, 0x0e, 0x1c, 0x00, 0xe0, 0x00, 0x00, 0x0e,
   0x1c, 0x00, 0xe0, 0x00, 0x00, 0x0e, 0x1c, 0x00, 0xe0, 0x00, 0x00, 0x0e,
   0x1c, 0x00, 0xe0, 0x00, 0x00, 0x0e, 0x1c, 0x00, 0xe0, 0x00, 0x00, 0x0f,
   0x1c, 0x00, 0xe0, 0x00, 0x00, 0x0f, 0x1c, 0x00, 0xe0, 0x01, 0x80, 0x0f,
   0x3c, 0x00, 0xf0, 0xff, 0xff, 0x0f, 0xfc, 0xcf, 0xff, 0xff, 0xff, 0x0f,
   0xfc, 0xff, 0xff, 0xff, 0xff, 0x0f, 0xfc, 0xff, 0xff, 0xff, 0xff, 0x0f,
   0xfc, 0xff, 0xff, 0x01, 0x00, 0x0e, 0x1c, 0x00, 0xe0, 0x01, 0x00, 0x0e,
   0x1c, 0x00, 0xe0, 0x01, 0x00, 0x0e, 0x1c, 0x00, 0xe0, 0x01, 0x00, 0x0e,
   0x1c, 0x00, 0xe0, 0x01, 0x00, 0x0e, 0x1c, 0x00, 0xe0, 0x01, 0x00, 0x0e,
   0x1c, 0x00, 0xe0, 0x01, 0x00, 0x0e, 0x1c, 0x00, 0xe0, 0x01, 0x00, 0x0e,
   0xfc, 0x00, 0xe0, 0x01, 0x00, 0x0e, 0xf8, 0xff, 0xff, 0x01, 0xf0, 0x07,
   0xf0, 0xff, 0xff, 0xff, 0xff, 0x07, 0xf0, 0xff, 0xff, 0xff, 0xff, 0x01,
   0xe0, 0xff, 0xff, 0xff, 0xff, 0x00, 0xe0, 0xff, 0xff, 0xff, 0x3f, 0x00,
   0x00, 0x00, 0x00, 0x00, 0x00, 0x00, 0x00, 0x00, 0x00, 0x00, 0x00, 0x00,
   0x00, 0x00, 0x00, 0x00, 0x00, 0x00, 0x00, 0x00, 0x00, 0x00, 0x00, 0x00,
   0x00, 0x00, 0x00, 0x00, 0x00, 0x00, 0x00, 0x00, 0x00, 0x00, 0x00, 0x00 };
